<?xml version="1.0" encoding="UTF-8" standalone="no"?>
<!-- Created with Inkscape (http://www.inkscape.org/) -->

<svg
   xmlns:dc="http://purl.org/dc/elements/1.1/"
   xmlns:cc="http://creativecommons.org/ns#"
   xmlns:rdf="http://www.w3.org/1999/02/22-rdf-syntax-ns#"
   xmlns:svg="http://www.w3.org/2000/svg"
   xmlns="http://www.w3.org/2000/svg"
   xmlns:sodipodi="http://sodipodi.sourceforge.net/DTD/sodipodi-0.dtd"
   xmlns:inkscape="http://www.inkscape.org/namespaces/inkscape"
   id="svg3336"
   version="1.1"
   inkscape:version="0.91 r13725"
   width="320"
   height="320"
   viewBox="0 0 320 320"
   sodipodi:docname="jw-logo.svg">
  <metadata
     id="metadata3342">
    <rdf:RDF>
      <cc:Work
         rdf:about="">
        <dc:format>image/svg+xml</dc:format>
        <dc:type
           rdf:resource="http://purl.org/dc/dcmitype/StillImage" />
        <dc:title></dc:title>
      </cc:Work>
    </rdf:RDF>
  </metadata>
  <defs
     id="defs3340">
    <filter
       style="color-interpolation-filters:sRGB;"
       inkscape:label="Brilliance"
       id="filter3372">
      <feColorMatrix
         values="2 -0.5 -0.5 0 0 -0.5 2 -0.5 0 0 -0.5 -0.5 2 0 0 0 0 0 1 0 "
         id="feColorMatrix3374"
         result="fbSourceGraphic" />
      <feColorMatrix
         result="fbSourceGraphicAlpha"
         in="fbSourceGraphic"
         values="0 0 0 -1 0 0 0 0 -1 0 0 0 0 -1 0 0 0 0 1 0"
         id="feColorMatrix3376" />
      <feColorMatrix
         id="feColorMatrix3378"
         values="2 -0.5 -0.5 0 0 -0.5 2 -0.5 0 0 -0.5 -0.5 2 0 0 0 0 0 1 0 "
         in="fbSourceGraphic"
         result="fbSourceGraphic" />
      <feColorMatrix
         result="fbSourceGraphicAlpha"
         in="fbSourceGraphic"
         values="0 0 0 -1 0 0 0 0 -1 0 0 0 0 -1 0 0 0 0 1 0"
         id="feColorMatrix3380" />
      <feColorMatrix
         id="feColorMatrix3382"
         values="2 -0.5 -0.5 0 0 -0.5 2 -0.5 0 0 -0.5 -0.5 2 0 0 0 0 0 1 0 "
         in="fbSourceGraphic"
         result="fbSourceGraphic" />
      <feColorMatrix
         result="fbSourceGraphicAlpha"
         in="fbSourceGraphic"
         values="0 0 0 -1 0 0 0 0 -1 0 0 0 0 -1 0 0 0 0 1 0"
         id="feColorMatrix3384" />
      <feColorMatrix
         id="feColorMatrix3386"
         values="2 -0.5 -0.5 0 0 -0.5 2 -0.5 0 0 -0.5 -0.5 2 0 0 0 0 0 1 0 "
         in="fbSourceGraphic"
         result="fbSourceGraphic" />
      <feColorMatrix
         result="fbSourceGraphicAlpha"
         in="fbSourceGraphic"
         values="0 0 0 -1 0 0 0 0 -1 0 0 0 0 -1 0 0 0 0 1 0"
         id="feColorMatrix3388" />
      <feColorMatrix
         id="feColorMatrix3390"
         values="2 -0.5 -0.5 0 0 -0.5 2 -0.5 0 0 -0.5 -0.5 2 0 0 0 0 0 1 0 "
         in="fbSourceGraphic"
         result="fbSourceGraphic" />
      <feColorMatrix
         result="fbSourceGraphicAlpha"
         in="fbSourceGraphic"
         values="0 0 0 -1 0 0 0 0 -1 0 0 0 0 -1 0 0 0 0 1 0"
         id="feColorMatrix3392" />
      <feColorMatrix
         id="feColorMatrix3394"
         values="-2 1.5 1.5 0 -0 1.5 -2 1.5 0 -0 1.5 1.5 -2 0 -0 0 0 0 1 0 "
         in="fbSourceGraphic"
         result="fbSourceGraphic" />
      <feColorMatrix
         result="fbSourceGraphicAlpha"
         in="fbSourceGraphic"
         values="0 0 0 -1 0 0 0 0 -1 0 0 0 0 -1 0 0 0 0 1 0"
         id="feColorMatrix3396" />
      <feColorMatrix
         id="feColorMatrix3398"
         values="-2 1.5 1.5 0 -0 1.5 -2 1.5 0 -0 1.5 1.5 -2 0 -0 0 0 0 1 0 "
         in="fbSourceGraphic"
         result="fbSourceGraphic" />
      <feColorMatrix
         result="fbSourceGraphicAlpha"
         in="fbSourceGraphic"
         values="0 0 0 -1 0 0 0 0 -1 0 0 0 0 -1 0 0 0 0 1 0"
         id="feColorMatrix3400" />
      <feColorMatrix
         id="feColorMatrix3402"
         values="2 -0.5 -0.5 0 0 -0.5 2 -0.5 0 0 -0.5 -0.5 2 0 0 0 0 0 1 0 "
         in="fbSourceGraphic" />
    </filter>
  </defs>
  <sodipodi:namedview
     pagecolor="#ffffff"
     bordercolor="#666666"
     borderopacity="1"
     objecttolerance="10"
     gridtolerance="10"
     guidetolerance="10"
     inkscape:pageopacity="0"
     inkscape:pageshadow="2"
     inkscape:window-width="1280"
     inkscape:window-height="737"
     id="namedview3338"
     showgrid="false"
     inkscape:zoom="1.1711456"
     inkscape:cx="147.49544"
     inkscape:cy="172.14657"
     inkscape:window-x="-4"
     inkscape:window-y="-4"
     inkscape:window-maximized="1"
     inkscape:current-layer="svg3336" />
  <g
     id="g3346"
     transform="translate(-69.163048,-0.8538648)">
    <path
       style="fill:#cfcfcf"
       d="m 158.41371,234.18008 c 0.84629,-0.3424 2.53379,-0.36324 3.75,-0.0464 1.21622,0.31692 0.52379,0.59707 -1.53871,0.62255 -2.0625,0.0255 -3.05758,-0.23383 -2.21129,-0.57624 z M 100.50624,219.6875 98.125,216.875 l 2.8125,2.38124 c 2.64306,2.23777 3.38155,3.24376 2.38124,3.24376 -0.2372,0 -1.50283,-1.26563 -2.8125,-2.8125 z M 208.75,216.09272 c 0,-0.34375 1.6875,-2.24172 3.75,-4.21772 2.0625,-1.976 3.75,-3.31148 3.75,-2.96773 0,0.34376 -1.6875,2.24173 -3.75,4.21773 -2.0625,1.976 -3.75,3.31147 -3.75,2.96772 z M 86.607517,160.625 c 0.0094,-3.4375 0.252142,-4.69539 0.539459,-2.79531 0.287319,1.90007 0.27964,4.71257 -0.01706,6.25 -0.296703,1.53742 -0.53178,-0.0172 -0.522397,-3.45469 z m 50.148723,-29.6875 -2.38124,-2.8125 2.8125,2.38124 c 1.54687,1.30967 2.8125,2.5753 2.8125,2.8125 0,1.00031 -1.00599,0.26181 -3.24376,-2.38124 z M 107.5,108.125 c 1.61468,-1.71875 3.21703,-3.125 3.56079,-3.125 0.34374,0 -0.69611,1.40625 -2.31079,3.125 -1.61468,1.71875 -3.21703,3.125 -3.56079,3.125 -0.34374,0 0.69611,-1.40625 2.31079,-3.125 z"
       id="path3360"
       inkscape:connector-curvature="0" />
    <path
       style="fill:#b0b0b0"
       d="m 76.348684,168.22916 c -0.05428,-1.3177 0.24116,-2.05599 0.656525,-1.64062 0.415363,0.41536 0.459772,1.49348 0.09869,2.39583 -0.399032,0.99717 -0.695229,0.70098 -0.755209,-0.75521 z M 218.59055,100.3125 c -1.55484,-1.98257 -1.51063,-2.026782 0.47195,-0.471944 2.08219,1.632964 2.74435,2.659444 1.71555,2.659444 -0.25956,0 -1.24394,-0.98437 -2.1875,-2.1875 z"
       id="path3358"
       inkscape:connector-curvature="0" />
    <path
       style="fill:#8f8f8f"
       d="m 233.94736,160 c 0,-1.71875 0.28373,-2.42188 0.63049,-1.5625 0.34676,0.85937 0.34676,2.26562 0,3.125 -0.34676,0.85937 -0.63049,0.15625 -0.63049,-1.5625 z M 141.22531,146.5625 129.375,134.375 l 12.1875,11.85031 c 11.31962,11.00645 12.75611,12.52469 11.85031,12.52469 -0.18545,0 -5.66982,-5.48438 -12.1875,-12.1875 z m 70.53093,-39.375 -2.38124,-2.8125 2.8125,2.38124 c 1.54687,1.30967 2.8125,2.5753 2.8125,2.8125 0,1.00031 -1.00599,0.26182 -3.24376,-2.38124 z"
       id="path3356"
       inkscape:connector-curvature="0" />
    <path
       style="fill:#717171"
       d="m 205.55383,268.125 c -5.7e-4,-20.625 0.17068,-29.23789 0.38054,-19.13976 0.20987,10.09813 0.21033,26.97313 0.001,37.5 -0.20931,10.52687 -0.38101,2.26476 -0.38157,-18.36024 z M 218.75,219.375 c 1.61469,-1.71875 3.21704,-3.125 3.56079,-3.125 0.34375,0 -0.6961,1.40625 -2.31079,3.125 -1.61469,1.71875 -3.21704,3.125 -3.56079,3.125 -0.34375,0 0.6961,-1.40625 2.31079,-3.125 z m -111.40944,-6.5625 c -1.55484,-1.98258 -1.51063,-2.02679 0.47194,-0.47195 1.20313,0.94356 2.1875,1.92794 2.1875,2.1875 0,1.0288 -1.02648,0.36664 -2.65944,-1.71555 z m 126.50813,-48.33334 c -0.0542,-1.3177 0.24115,-2.05599 0.65652,-1.64062 0.41536,0.41536 0.45976,1.49348 0.0986,2.39583 -0.39903,0.99717 -0.69523,0.70098 -0.7552,-0.75521 z m -157.500006,-1.25 c -0.05428,-1.3177 0.24116,-2.05599 0.656525,-1.64062 0.415363,0.41536 0.459772,1.49348 0.09869,2.39583 -0.399032,0.99717 -0.695229,0.70098 -0.755209,-0.75521 z m 78.491866,-2.91666 c -1.55484,-1.98258 -1.51063,-2.02679 0.47195,-0.47195 1.20312,0.94356 2.1875,1.92794 2.1875,2.1875 0,1.0288 -1.02649,0.36664 -2.65945,-1.71555 z m -78.491866,-3.33334 c -0.05428,-1.3177 0.24116,-2.05598 0.656525,-1.64062 0.415363,0.41537 0.459772,1.4935 0.09869,2.39583 -0.399032,0.99717 -0.695229,0.70098 -0.755209,-0.75521 z M 100.625,101.25 c 1.24436,-1.375 2.54372,-2.5 2.88747,-2.5 0.34375,0 -0.39311,1.125 -1.63747,2.5 -1.24436,1.375 -2.543719,2.5 -2.887469,2.5 -0.34375,0 0.393111,-1.125 1.637469,-2.5 z M 205.56611,89.672284 c -0.33299,-0.867745 -0.45526,-17.88337 -0.27172,-37.8125 l 0.3337,-36.234784 0.62346,37.8132 c 0.3429,20.79726 0.46517,37.812885 0.27172,37.8125 -0.19346,-3.85e-4 -0.62417,-0.710672 -0.95716,-1.578416 z M 158.4375,85.422149 c 0.85937,-0.346765 2.26562,-0.346765 3.125,0 0.85937,0.346766 0.15625,0.630482 -1.5625,0.630482 -1.71875,0 -2.42188,-0.283716 -1.5625,-0.630482 z"
       id="path3354"
       inkscape:connector-curvature="0" />
    <path
       style="fill:#4e4e4e"
       d="m 242.95654,160.625 c -0.004,-6.875 0.20398,-9.84697 0.46055,-6.6044 0.25656,3.24257 0.25922,8.86757 0.006,12.5 -0.25364,3.63243 -0.46355,0.9794 -0.4668,-5.8956 z M 153.125,148.75 c -3.38581,-3.4375 -5.87478,-6.25 -5.53103,-6.25 0.34375,0 3.39522,2.8125 6.78103,6.25 3.38581,3.4375 5.87477,6.25 5.53102,6.25 -0.34375,0 -3.39521,-2.8125 -6.78102,-6.25 z"
       id="path3352"
       inkscape:connector-curvature="0" />
    <path
       style="fill:#2d2d2d"
       d="m 115.55383,268.125 c -5.6e-4,-20.625 0.17069,-29.23789 0.38055,-19.13976 0.20986,10.09813 0.21032,26.97313 10e-4,37.5 -0.20931,10.52687 -0.38101,2.26476 -0.38157,-18.36024 z m -14.39844,-49.0625 -3.03039,-3.4375 3.4375,3.03039 c 3.21286,2.83236 4.01074,3.84461 3.03039,3.84461 -0.22391,0 -1.77078,-1.54688 -3.4375,-3.4375 z M 211.875,213.75 c 1.24436,-1.375 2.54372,-2.5 2.88747,-2.5 0.34375,0 -0.39311,1.125 -1.63747,2.5 -1.24436,1.375 -2.54373,2.5 -2.88748,2.5 -0.34375,0 0.39312,-1.125 1.63748,-2.5 z m -71.25,-77.5 c -3.38581,-3.4375 -5.87478,-6.25 -5.53103,-6.25 0.34375,0 3.39522,2.8125 6.78103,6.25 3.38581,3.4375 5.87477,6.25 5.53102,6.25 -0.34375,0 -3.39521,-2.8125 -6.78102,-6.25 z m -33.75,-28.75 c 1.24436,-1.375 2.54372,-2.5 2.88747,-2.5 0.34375,0 -0.39311,1.125 -1.63747,2.5 -1.24436,1.375 -2.54372,2.5 -2.88747,2.5 -0.34375,0 0.39311,-1.125 1.63747,-2.5 z m 8.67985,-55 c 0,-20.96875 0.17106,-29.546875 0.38013,-19.0625 0.20908,10.484375 0.20908,27.640625 0,38.125 -0.20907,10.484375 -0.38013,1.90625 -0.38013,-19.0625 z m 36.03369,32.994791 c 0.41537,-0.415364 1.4935,-0.459772 2.39583,-0.09869 0.99717,0.399032 0.70098,0.695228 -0.75521,0.755208 -1.3177,0.05427 -2.05598,-0.24116 -1.64062,-0.656525 z m 13.75,0 c 0.41536,-0.415364 1.49348,-0.459772 2.39583,-0.09869 0.99717,0.399032 0.70098,0.695228 -0.75521,0.755208 -1.3177,0.05427 -2.05599,-0.24116 -1.64062,-0.656525 z"
       id="path3350"
       inkscape:connector-curvature="0" />
    <path
       style="fill:#000000"
       d="m 122.9574,319.11678 c -2.12082,-0.94522 -5.07394,-3.26693 -6.56251,-5.15933 -2.64285,-3.35984 -2.70648,-4.34999 -2.70648,-42.11438 l 0,-38.67362 -11.7059,-11.4703 C 88.99758,208.97558 83.219607,199.85672 78.477865,184.60386 c -3.76474,-12.11011 -4.0338,-34.03336 -0.559948,-45.625 5.16562,-17.23677 18.131274,-36.24102 30.639183,-44.908995 l 5.13131,-3.556002 0,-38.642074 c 0,-42.0646014 0.18589,-43.3176422 7.12361,-48.0197993 3.22094,-2.1830467 6.15458,-2.3731249 36.62639,-2.3731249 30.66595,0 33.42509,0.1815118 37.1673,2.4450781 7.54422,4.5632925 7.8327,6.3480861 7.8327,48.4603011 l 0,38.027556 6.5625,5.276449 c 13.77392,11.074651 24.69918,27.934611 28.97921,44.721041 2.52616,9.90766 2.563,31.28238 0.0709,41.11944 -4.39224,17.33725 -17.43619,37.06889 -30.48127,46.10913 l -5.13134,3.556 0,37.99515 c 0,41.4828 -0.42403,44.42582 -7.02449,48.75512 -3.11527,2.04333 -6.92331,2.31677 -36.04191,2.58799 -25.44359,0.23699 -33.40125,-0.0722 -36.41461,-1.41534 z m 59.13449,-86.97052 c 28.05378,-9.91428 47.93682,-36.33617 49.96557,-66.3976 2.48975,-36.89259 -23.10254,-70.444133 -59.61905,-78.160683 -35.3838,-7.477189 -72.858724,13.949263 -85.023208,48.612403 -3.439096,9.79983 -4.734785,30.57313 -2.539925,40.72168 5.750539,26.58919 27.481033,49.35092 54.497283,57.08351 9.3856,2.68634 32.73206,1.67021 42.71933,-1.85931 z m -40.86061,-83.17433 c -14.58315,-14.75098 -15.38249,-15.81416 -13.38883,-17.80782 1.99366,-1.99366 2.96445,-1.27845 16.26035,11.97974 l 14.1401,14.09998 25.43191,-16.31998 c 13.98755,-8.97599 26.12135,-16.31999 26.96401,-16.31999 1.86738,0 3.12579,2.89019 1.99644,4.58521 -0.88616,1.33005 -51.18789,33.66421 -54.12306,34.79054 -1.11899,0.4294 -7.48629,-5.10031 -17.28092,-15.00768 z"
       id="path3348"
       inkscape:connector-curvature="0" />
  </g>
  <text
     xml:space="preserve"
     style="font-style:normal;font-weight:normal;font-size:40px;line-height:125%;font-family:sans-serif;letter-spacing:0px;word-spacing:0px;fill:#000000;fill-opacity:1;stroke:none;stroke-width:1px;stroke-linecap:butt;stroke-linejoin:miter;stroke-opacity:1;filter:url(#filter3372)"
     x="176.75002"
     y="142.39612"
     id="text3362"
     sodipodi:linespacing="125%"><tspan
       sodipodi:role="line"
       id="tspan3364"
       x="176.75002"
       y="142.39612"
       style="font-size:45px">Japan</tspan><tspan
       sodipodi:role="line"
       x="176.75002"
       y="198.64612"
       id="tspan3366"
       style="font-size:45px">Watch</tspan></text>
  <text
     xml:space="preserve"
     style="font-style:normal;font-weight:normal;font-size:12.5px;line-height:125%;font-family:sans-serif;letter-spacing:0px;word-spacing:0px;fill:#000000;fill-opacity:1;stroke:none;stroke-width:1px;stroke-linecap:butt;stroke-linejoin:miter;stroke-opacity:1"
     x="163.08818"
     y="272.18356"
     id="text3368"
     sodipodi:linespacing="125%"><tspan
       sodipodi:role="line"
       id="tspan3370"
       x="163.08818"
       y="272.18356">RESPECT YOUR TIME</tspan></text>
</svg>
